<svg width="70" height="70" viewBox="0 0 70 70" fill="none" xmlns="http://www.w3.org/2000/svg">
<g clip-path="url(#clip0_0_223)">
<path d="M55.8346 60.0499C54.7942 60.0499 53.7623 60.0499 52.7218 60.0499C51.9628 60.0499 51.6387 60.2633 51.3402 60.9545C50.5642 62.7721 49.7966 64.5897 49.0205 66.4074C48.9608 66.5354 48.9097 66.6719 48.8414 66.7914C48.5344 67.3972 48.2274 67.5167 47.5963 67.2607C45.9504 66.6036 44.3044 65.938 42.6499 65.281C42.2576 65.1273 41.8483 64.9823 41.4474 64.8628C40.9698 64.7177 40.5605 64.8372 40.2023 65.1871C38.744 66.6207 37.2771 68.0458 35.8102 69.4794C35.1109 70.1706 34.8551 70.1706 34.1558 69.4879C32.7145 68.0799 31.2647 66.6719 29.8234 65.2553C29.414 64.8543 28.9535 64.7092 28.4248 64.8713C27.9387 65.0164 27.4611 65.2127 26.992 65.409C25.5934 65.9722 24.2033 66.5524 22.8132 67.1242C22.6682 67.1839 22.5232 67.2351 22.3697 67.2692C21.6107 67.457 21.406 67.3546 21.0905 66.6378C20.2888 64.786 19.4871 62.9342 18.694 61.0825C18.3358 60.2462 18.0118 60.067 17.0822 60.0585C14.9927 60.0414 12.9033 59.9987 10.8224 59.9561C10.2851 59.9475 10.0634 59.7171 10.0549 59.1454C10.0208 57.3704 10.0037 55.5869 9.97813 53.812C9.9696 53.3426 9.95254 52.8733 9.92696 52.4125C9.90137 51.8919 9.56024 51.6018 9.11677 51.4055C8.20425 51.0045 7.29172 50.6205 6.3792 50.2279C5.33875 49.7757 4.28977 49.3404 3.24932 48.8711C2.58412 48.5724 2.48178 48.3591 2.74616 47.6679C3.42842 45.8929 4.14479 44.1265 4.83558 42.3515C5.39845 40.9094 5.31316 40.679 4.20449 39.5952C2.86555 38.2811 1.57778 36.9243 0.272959 35.576C-0.0596432 35.2346 -0.085228 34.8762 0.213261 34.5008C0.477638 34.1679 0.784655 33.8693 1.08314 33.5621C2.20888 32.4186 3.33461 31.2666 4.48592 30.1487C5.16818 29.4831 5.33022 28.7321 4.97203 27.8617C4.39211 26.4537 3.81219 25.0542 3.2408 23.6462C3.04465 23.1769 2.85702 22.699 2.72057 22.204C2.54148 21.5726 2.65235 21.3592 3.25785 21.1032C4.88675 20.3949 6.52418 19.7037 8.15308 18.9955C8.50274 18.8419 8.86092 18.6968 9.20205 18.5261C9.69669 18.2872 9.94401 17.9202 9.94401 17.3485C9.9696 15.1981 10.0122 13.0562 10.0634 10.9143C10.0805 10.2401 10.2596 10.0609 10.9418 10.0524C12.2808 10.0268 13.6112 10.0268 14.9501 10.0012C15.7262 9.98412 16.5108 9.94145 17.2869 9.93292C18.0032 9.92439 18.4296 9.56598 18.7025 8.91744C19.4189 7.16808 20.1694 5.43579 20.9114 3.69496C21.4145 2.51734 21.6192 2.41494 22.8132 2.88428C24.5956 3.58403 26.3695 4.30084 28.1433 5.03471C28.8341 5.31632 29.3885 5.19685 29.9172 4.66778C31.2647 3.31949 32.6292 1.9968 33.9852 0.657048C34.0278 0.614381 34.062 0.580247 34.1046 0.53758C34.8295 -0.153631 35.1536 -0.162164 35.8699 0.520513C37.2004 1.80053 38.5393 3.08055 39.8271 4.3947C40.5264 5.11152 41.2428 5.32485 42.1894 4.90671C43.8012 4.20697 45.4472 3.56696 47.0846 2.90988C48.415 2.37227 48.5856 2.46614 49.1399 3.79736C49.8734 5.53819 50.6409 7.27048 51.3743 9.01131C51.6472 9.65132 52.0822 9.92439 52.79 9.92439C54.9221 9.93292 57.0542 9.99265 59.1777 10.0439C59.715 10.0524 59.9367 10.2743 59.9452 10.846C59.9794 12.5271 59.9964 14.1997 60.022 15.8807C60.0305 16.3757 60.0305 16.8706 60.0476 17.3741C60.0561 17.9629 60.3802 18.381 60.926 18.6115C62.9046 19.4477 64.8746 20.284 66.8446 21.1459C67.4075 21.3934 67.5098 21.7091 67.2625 22.332C66.5291 24.1923 65.7871 26.0526 65.0366 27.9129C64.6528 28.8687 64.7381 29.2868 65.4545 30.0207C66.8361 31.4372 68.2091 32.8538 69.5822 34.2704C70.1706 34.8762 70.1706 35.0981 69.5651 35.7296C68.158 37.1973 66.7508 38.6651 65.3181 40.0987C64.8319 40.5851 64.7125 41.0715 64.9599 41.7115C65.7189 43.6316 66.4438 45.5601 67.1943 47.4716C67.5183 48.2908 67.4075 48.6322 66.5888 48.982C64.8149 49.7415 63.041 50.5095 61.2415 51.2263C60.4484 51.5421 60.022 52.0285 60.0135 52.9074C60.0135 54.8957 59.9794 56.8926 59.9623 58.8809C59.9538 59.7769 59.7832 59.9475 58.8792 59.9561C57.8729 59.9731 56.858 59.9561 55.8517 59.9561C55.8346 59.9902 55.8346 60.0158 55.8346 60.0499ZM46.138 20.0707C46.0186 20.0877 45.9248 20.0877 45.848 20.1133C44.6199 20.5229 43.4004 20.9496 42.1723 21.3592C41.8994 21.4531 41.8568 21.6323 41.8483 21.8798C41.8227 23.5011 41.7886 25.1225 41.763 26.7438C41.6948 30.6095 41.6351 34.4752 41.5668 38.3408C41.5668 38.4603 41.5498 38.6224 41.473 38.6992C41.0381 39.1515 40.6031 39.5867 39.955 39.7488C38.8293 40.0304 38.2237 39.6123 38.2237 38.4603C38.2237 37.0949 38.2749 35.7381 38.3005 34.3728C38.3176 33.4255 38.3005 32.4698 38.3261 31.5226C38.3517 30.3706 38.4028 29.2271 38.454 28.0751C38.4711 27.6655 38.3176 27.5887 37.9508 27.6655C36.9957 27.8703 36.032 28.0495 35.0683 28.2287C34.5651 28.3225 33.934 28.2372 34.1046 29.1417C33.8232 29.0649 33.627 28.9711 33.4223 28.954C32.8765 28.9028 32.3051 28.7663 31.7934 28.8857C29.3117 29.4575 27.6146 30.9594 26.7447 33.3743C25.9942 35.4565 25.9601 37.6155 26.1307 39.7744C26.1989 40.5595 26.3609 41.3531 26.5912 42.1126C27.137 43.8876 28.51 44.8092 30.2157 44.6385C31.802 44.4764 32.9874 43.6998 33.7976 42.343C33.9596 42.0699 34.1302 41.7969 34.3349 41.4726C34.5225 41.7201 34.6419 41.9163 34.8039 42.0614C35.0853 42.3089 35.3668 42.6161 35.7079 42.7441C36.936 43.2134 38.164 43.1622 39.3239 42.5222C40.2449 42.0187 40.859 41.1825 41.5242 40.4059C41.6436 40.2608 41.78 40.1243 41.8483 40.056C42.3344 40.4827 42.7267 40.9691 43.2298 41.2337C44.33 41.8139 45.4813 41.7627 46.59 41.1995C47.6987 40.6363 48.5088 39.7488 49.2423 38.776C49.4469 38.5029 49.6602 38.2213 49.8648 37.9483C49.9672 38.0165 50.0098 38.0336 50.0354 38.0592C50.1207 38.1531 50.1974 38.2555 50.2827 38.3579C50.965 39.2454 51.8519 39.8086 52.9776 39.8854C54.581 39.9878 56.099 39.5867 57.472 38.8102C58.0349 38.4944 58.5295 37.9397 58.8963 37.3851C59.3824 36.6512 59.4506 35.7808 59.1948 34.7909C58.9474 35.064 58.7683 35.2602 58.5978 35.4565C57.8643 36.3098 57.0456 37.0352 55.9114 37.3083C54.8368 37.5643 53.9925 37.2229 53.5661 36.2074C53.3358 35.6698 53.2761 35.064 53.1226 34.4837C53.0288 34.1167 53.1312 33.9375 53.5064 33.7839C54.9392 33.2207 56.2013 32.393 57.2077 31.1983C58.3846 29.8074 58.9474 28.2372 58.5296 26.4196C58.2822 25.3102 57.617 24.4995 56.4572 24.2777C54.129 23.8425 52.1931 24.6275 50.7006 26.4281C49.464 27.9215 49.0888 29.7647 48.9694 31.6335C48.867 33.2634 48.8841 34.9018 49.319 36.5061C49.3531 36.6341 49.3702 36.8304 49.2934 36.9072C48.7817 37.496 48.3042 38.1616 47.4684 38.3067C46.2147 38.52 45.7798 38.0336 45.8054 37.0693C45.8395 35.8661 45.7968 34.6544 45.8224 33.4511C45.848 32.1199 45.9248 30.7887 45.9589 29.4489C46.0356 26.4537 46.0953 23.4499 46.1636 20.4547C46.1806 20.3352 46.155 20.2072 46.138 20.0707ZM16.1014 47.1132C18.1482 47.1047 20.2376 46.5756 21.8409 45.6028C24.3483 44.0838 25.3546 41.703 25.0476 39.16C24.7064 36.3525 23.2481 34.2533 20.7493 32.8709C19.8197 32.3589 18.9158 31.7871 18.0459 31.1727C17.1333 30.5327 16.4767 29.6708 16.1952 28.5529C15.8115 27.051 16.5449 25.7369 18.0373 25.3188C19.7259 24.8409 20.9881 25.7796 20.8602 27.5204C20.8176 28.1263 20.4764 28.7236 20.212 29.2868C20.0671 29.5855 20.0927 29.6964 20.3826 29.833C21.1672 30.1914 22.1224 30.0122 22.7108 29.3209C23.6319 28.2628 23.666 27.051 23.1969 25.7966C22.7279 24.5337 21.7386 23.8681 20.4508 23.7571C19.5554 23.6803 18.6173 23.6974 17.7388 23.8681C15.8882 24.2265 14.2678 25.0969 13.0312 26.5646C11.9055 27.9044 11.3171 29.3892 11.8458 31.1727C12.2211 32.4442 13.0824 33.3231 14.1143 34.0741C15.368 34.9786 16.6899 35.7978 17.8838 36.7792C19.8624 38.4091 20.6299 40.568 20.195 43.1025C19.9733 44.391 19.1119 45.159 17.8753 45.4236C16.7155 45.6796 15.658 45.4236 14.9075 44.4166C13.722 42.8123 14.2508 40.6534 16.0417 39.783C16.2549 39.6806 16.4852 39.5952 16.7155 39.5184C17.2272 39.3392 17.2783 39.16 16.8946 38.7504C16.7581 38.6054 16.5961 38.4859 16.417 38.4005C15.82 38.1019 15.1889 38.1019 14.5408 38.2213C12.6048 38.5627 11.3 39.8086 10.9333 41.6603C10.5751 43.495 11.4109 45.4833 12.9801 46.4135C13.9352 46.9937 15.0098 47.1217 16.1014 47.1132Z" fill="#3597D0"/>
<path d="M34.0447 35.2346C33.985 36.728 33.9594 38.2213 33.8656 39.7062C33.8144 40.5168 33.3283 41.1056 32.6545 41.5067C31.8273 42.0016 30.7527 41.5408 30.4713 40.5168C30.2496 39.7318 30.1216 38.904 30.0705 38.0848C29.9596 36.489 30.0705 34.9018 30.4628 33.3402C30.6589 32.5466 30.9659 31.7956 31.5118 31.1727C32.0405 30.5754 32.7142 30.3279 33.5074 30.4815C33.8997 30.5583 34.1129 30.7631 34.1044 31.2154C34.0788 32.5551 34.0958 33.8863 34.0958 35.2261C34.0788 35.2261 34.0617 35.2261 34.0447 35.2346Z" fill="#3597D0"/>
<path d="M53.0117 32.4527C53.0885 31.6677 53.0885 30.9679 53.2335 30.2938C53.4467 29.2698 53.694 28.2458 54.0351 27.2559C54.2057 26.7695 54.5894 26.3257 54.9732 25.9673C55.4934 25.4809 56.0563 25.6089 56.4315 26.2233C56.875 26.9572 56.9432 27.7508 56.7641 28.57C56.3718 30.3279 55.3826 31.5994 53.6769 32.2565C53.5149 32.3247 53.3358 32.3589 53.0117 32.4527Z" fill="#3597D0"/>
</g>
<defs>
<clipPath id="clip0_0_223">
<rect width="70" height="70" fill="white"/>
</clipPath>
</defs>
</svg>
