<svg
	width="24"
	height="24"
	viewBox="0 0 24 24"
	fill="white"
	xmlns="http://www.w3.org/2000/svg"
>
	<path d="M7.5 22.5C8.32843 22.5 9 21.8284 9 21C9 20.1716 8.32843 19.5 7.5 19.5C6.67157 19.5 6 20.1716 6 21C6 21.8284 6.67157 22.5 7.5 22.5Z"  />
	<path d="M18 22.5C18.8284 22.5 19.5 21.8284 19.5 21C19.5 20.1716 18.8284 19.5 18 19.5C17.1716 19.5 16.5 20.1716 16.5 21C16.5 21.8284 17.1716 22.5 18 22.5Z"  />
	<path d="M21 5.24991H4.365L3.75 2.09991C3.71494 1.92795 3.62068 1.77374 3.48364 1.6641C3.3466 1.55447 3.17546 1.49637 3 1.49991H0V2.99991H2.385L5.25 17.3999C5.28506 17.5719 5.37932 17.7261 5.51636 17.8357C5.6534 17.9453 5.82454 18.0035 6 17.9999H19.5V16.4999H6.615L6 13.4999H19.5C19.6734 13.5041 19.8429 13.4482 19.9796 13.3415C20.1163 13.2349 20.2119 13.0841 20.25 12.9149L21.75 6.16491C21.7751 6.05363 21.7745 5.93808 21.7483 5.82706C21.722 5.71604 21.6708 5.61247 21.5985 5.52424C21.5261 5.43601 21.4347 5.36543 21.3309 5.3179C21.2272 5.27036 21.114 5.24711 21 5.24991ZM18.9 11.9999H5.715L4.665 6.74991H20.0625L18.9 11.9999Z"  />
</svg>
