<svg width="19" height="21" viewBox="0 0 19 21" fill="#6D6E71" xmlns="http://www.w3.org/2000/svg">
<path d="M2.85714 6.57576H16.1429H17.3571V4.38384H1.64286V6.57576H2.85714ZM5.71429 0H13.2857C13.7143 0 14.1429 0.353535 14.1429 0.777778V2.75758H18.2143C18.6429 2.75758 19 3.11111 19 3.53535V7.35354C19 7.77778 18.6429 8.13131 18.2143 8.13131H17V20.2222C17 20.6465 16.6429 21 16.2143 21H2.85714C2.42857 21 2.07143 20.6465 2.07143 20.2222V8.20202H0.785714C0.357143 8.20202 0 7.84848 0 7.42424V3.60606C0 3.18182 0.357143 2.82828 0.785714 2.82828H4.78571V0.777778C4.85714 0.353535 5.21429 0 5.71429 0ZM12.5 1.62626H6.5V2.61616H12.4286V1.62626H12.5ZM6.57143 8.20202V17.6061C6.57143 17.8889 6.35714 18.101 6.07143 18.101C5.78571 18.101 5.57143 17.8889 5.57143 17.6061V8.20202H3.64286V19.4444H15.2857V8.20202H13.3571V17.6061C13.3571 17.8889 13.1429 18.101 12.8571 18.101C12.5714 18.101 12.3571 17.8889 12.3571 17.6061V8.20202H10V17.6061C10 17.8889 9.78572 18.101 9.5 18.101C9.21429 18.101 9 17.8889 9 17.6061V8.20202H6.57143Z" />
</svg>
