<svg width="52" height="52" viewBox="0 0 52 52" fill="none" xmlns="http://www.w3.org/2000/svg">
<g clip-path="url(#clip0_193_3297)">
<path d="M50.416 34.4189C50.2942 35.5032 49.8799 36.4657 49.2098 37.3308C49.0271 37.5257 48.8443 37.7085 48.6494 37.9034C48.1498 38.2567 47.6503 38.5857 47.0777 38.8172C46.6391 38.9999 45.9324 38.8659 45.7618 39.268C45.5913 39.67 45.8349 40.2549 45.8959 40.7544C45.8837 40.9981 45.8715 41.2417 45.8715 41.4854C45.4816 43.2764 44.5556 44.6532 42.8621 45.4451C42.4113 45.6522 41.9362 45.7375 41.4732 45.8837C41.2295 45.8959 40.9858 45.9081 40.7422 45.9081C40.3401 45.8594 39.938 45.8106 39.536 45.7497C39.2801 45.701 39.0974 45.7132 39.0608 46.0299C38.939 47.029 38.476 47.8697 37.879 48.6616C37.684 48.8444 37.5013 49.0271 37.3064 49.2221C36.4413 49.88 35.4788 50.3064 34.3944 50.4282C34.1873 50.4282 33.9802 50.4404 33.7731 50.4404C33.3101 50.3673 32.8471 50.2942 32.3841 50.2211C32.2014 50.148 32.0186 50.0749 31.8359 50.014C31.8115 49.9896 31.775 49.9531 31.7506 49.9287C31.3851 49.7094 31.0074 49.3195 30.6541 49.3317C30.2764 49.3561 30.1789 49.9653 29.8621 50.2455C29.4966 50.5623 29.1433 50.8912 28.7778 51.2202C28.6803 51.2324 28.595 51.2689 28.5585 51.3664C28.5097 51.3907 28.461 51.4151 28.4001 51.4517C28.1198 51.5613 27.8396 51.671 27.5594 51.7806C26.8893 51.9877 26.1948 51.9999 25.4882 52.0121C25.3298 51.9999 25.1592 51.9756 25.0008 51.9634C24.5135 51.7928 24.0261 51.6222 23.5388 51.4517C23.4779 51.4151 23.4048 51.3786 23.3438 51.342C23.0027 51.074 22.6494 50.7937 22.3082 50.5257C22.1986 50.4039 22.0767 50.2698 21.9671 50.148C21.3701 49.2221 21.3701 49.2221 20.371 49.9043C20.2735 49.9043 20.1761 49.9287 20.1273 50.0262C19.8106 50.1236 19.4938 50.2211 19.177 50.3186C18.6044 50.4526 18.0196 50.4039 17.4469 50.4282C17.2033 50.3795 16.9596 50.3429 16.7159 50.2942C16.3504 50.1602 15.9971 50.0262 15.6316 49.9043C15.461 49.7947 15.2904 49.6972 15.1198 49.5876C14.8031 49.3195 14.4741 49.0515 14.1573 48.7956C14.072 48.686 13.9868 48.5763 13.9015 48.4667C13.67 48.0768 13.4385 47.6869 13.207 47.297C13.1705 47.1874 13.1339 47.0899 13.0852 46.9803C13.0364 46.7488 12.9511 46.5051 12.939 46.2736C12.9146 45.6888 12.6344 45.6522 12.1958 45.8837C11.9521 45.8959 11.7084 45.9203 11.4647 45.9325C10.9408 45.8837 10.4048 45.835 9.88086 45.7863C9.72247 45.7375 9.56408 45.6888 9.40569 45.6279C9.04018 45.4329 8.66249 45.238 8.29698 45.0431C8.13859 44.9212 7.9802 44.7994 7.82181 44.6654C7.54159 44.3608 7.27355 44.0562 6.99332 43.7516C6.90804 43.6054 6.81057 43.4592 6.72528 43.3252C6.56689 42.9596 6.40851 42.5941 6.25012 42.2286C6.22575 42.0581 6.25012 41.8875 6.12828 41.7413C6.1161 41.1321 6.1161 40.5229 6.10391 39.9137C6.16483 39.6579 6.38414 39.4142 6.1161 39.1583C5.62875 39.0243 5.1414 38.8903 4.65405 38.7563C4.52003 38.6954 4.3982 38.6344 4.26418 38.5735C3.89867 38.3177 3.54534 38.0618 3.17983 37.8059C3.10673 37.7328 3.03362 37.6597 2.94834 37.5866C2.69248 37.2211 2.42444 36.8678 2.16858 36.5023C2.09548 36.3805 2.03456 36.2464 1.96146 36.1246C1.82744 35.6373 1.69342 35.1621 1.5594 34.6747C1.54721 34.5042 1.53503 34.3458 1.52284 34.1752C1.5594 33.4686 1.64468 32.7741 1.87617 32.104C2.10766 31.7019 2.27823 31.2755 2.57064 30.91C2.65593 30.8003 2.8265 30.6541 2.55846 30.5323C2.2295 30.2886 1.90054 30.0449 1.57158 29.8013C1.44974 29.6794 1.34009 29.5576 1.21825 29.4358C0.986762 29.1068 0.755272 28.7657 0.523782 28.4367C0.438496 28.2661 0.35321 28.0834 0.280108 27.9128C0.182639 27.4864 0.0851692 27.0599 -0.0244841 26.6335C-0.0366678 26.4264 -0.0488515 26.2193 -0.0610352 26.0121C-0.0244841 25.2689 0.146088 24.5501 0.401945 23.8556L0.389761 23.8435C0.438496 23.7582 0.499415 23.6729 0.548149 23.5876C1.0355 22.8078 1.59595 22.1012 2.41225 21.6504C2.8265 21.4189 2.77777 21.2483 2.44881 21.0168C2.24168 20.6148 2.03456 20.2127 1.82744 19.7985C1.75434 19.567 1.69342 19.3477 1.62031 19.1162C1.59595 18.6532 1.57158 18.1902 1.54721 17.7272C1.57158 17.4836 1.59595 17.2399 1.60813 16.9962C2.08329 15.2905 3.03362 13.9869 4.70279 13.2802C5.08048 13.1218 5.45818 12.9878 5.86024 12.9512C6.17702 12.9147 6.28667 12.7685 6.20138 12.4639C6.03081 11.8669 6.09173 11.2577 6.07955 10.6607C6.12828 10.417 6.16483 10.1734 6.21357 9.9297C6.82275 8.08996 8.04112 6.87159 9.88086 6.26241C10.1245 6.21367 10.3682 6.17712 10.6119 6.12839C11.2332 6.14057 11.8668 6.09184 12.476 6.26241C12.7318 6.33551 12.8415 6.22586 12.8902 5.98218C13.3045 3.66729 14.7422 2.30271 16.9474 1.66916C17.1911 1.6448 17.4347 1.62043 17.6784 1.60825C18.1414 1.63261 18.6044 1.65698 19.0674 1.68135C19.2989 1.75445 19.5182 1.81537 19.7497 1.88847C20.1517 2.09559 20.5538 2.30271 20.968 2.50984C21.1386 2.65604 21.2848 3.02155 21.5285 2.57076C22.0036 1.7179 22.7225 1.1209 23.5388 0.609184C23.6241 0.560449 23.7094 0.499531 23.7946 0.450796L23.8068 0.46298C24.5013 0.219306 25.2201 0.0487347 25.9633 0C26.1705 0.0121837 26.3776 0.0243674 26.5847 0.036551C27.0111 0.13402 27.4376 0.23149 27.864 0.341143C28.0346 0.426429 28.2173 0.499531 28.3879 0.584816C28.7168 0.816306 29.058 1.0478 29.387 1.27929C29.5088 1.40112 29.6306 1.51078 29.7525 1.63261C29.9961 1.96157 30.2398 2.29053 30.4835 2.61949C30.5931 2.88753 30.7393 2.72914 30.849 2.63167C31.2145 2.33927 31.6409 2.16869 32.043 1.9372C32.7131 1.70571 33.4076 1.62043 34.1142 1.58388C34.2848 1.59606 34.4432 1.60825 34.6138 1.62043C35.1011 1.75445 35.5763 1.88847 36.0636 2.02249C36.1855 2.09559 36.3195 2.15651 36.4413 2.22961C36.8068 2.48547 37.1601 2.75351 37.5257 3.00937C37.5988 3.08247 37.6719 3.15557 37.745 3.24086C38.0008 3.60637 38.2567 3.95969 38.5125 4.3252C38.5735 4.45923 38.6344 4.58106 38.6953 4.71508C38.8293 5.20243 38.9633 5.68978 39.0974 6.17712C39.3532 6.44516 39.5969 6.22586 39.8527 6.16494C40.4619 6.17712 41.0711 6.17712 41.6803 6.18931C41.8143 6.31114 41.9971 6.28678 42.1676 6.31114C42.5332 6.46953 42.8987 6.62792 43.2642 6.78631C43.4104 6.87159 43.5566 6.96906 43.6906 7.05435C43.9952 7.33457 44.2998 7.60261 44.6044 7.88284C44.7262 8.04123 44.8481 8.19961 44.9821 8.358C45.177 8.72351 45.372 9.10121 45.5669 9.46672C45.6156 9.6251 45.6644 9.78349 45.7253 9.94188C45.774 10.4658 45.8228 11.0019 45.8715 11.5258C45.8593 11.7694 45.8349 12.0131 45.8228 12.2568C45.5913 12.6954 45.6278 12.9756 46.2126 13C46.4563 13.0122 46.6878 13.0975 46.9193 13.1462C47.0289 13.1827 47.1264 13.2193 47.2361 13.268C47.6259 13.4995 48.0158 13.731 48.4057 13.9625C48.5153 14.0478 48.625 14.1331 48.7347 14.2183C49.0027 14.5351 49.2707 14.8641 49.5266 15.1809C49.6362 15.3514 49.7337 15.522 49.8434 15.6926C49.9774 16.0581 50.1114 16.4114 50.2332 16.7769C50.282 17.0206 50.3185 17.2643 50.3673 17.5079C50.3551 18.0806 50.3916 18.6654 50.2576 19.238C50.1601 19.5548 50.0627 19.8716 49.9652 20.1884C49.8677 20.2371 49.8434 20.3346 49.8434 20.432C49.8068 20.4808 49.7581 20.5173 49.7337 20.566C49.1855 21.4311 49.1855 21.4311 50.087 22.0159C50.2089 22.1377 50.3429 22.2474 50.4647 22.3692C50.7206 22.6982 50.9643 23.015 51.2201 23.3439C51.281 23.4292 51.3298 23.5145 51.3907 23.612C51.5613 24.0993 51.7318 24.5867 51.9024 25.074C51.9146 25.2324 51.939 25.3908 51.9511 25.5614C51.939 26.2558 51.9268 26.9503 51.7197 27.6326C51.61 27.9128 51.5004 28.193 51.3907 28.4733C51.3663 28.522 51.342 28.5707 51.3176 28.6195C51.2689 28.6926 51.2201 28.7657 51.1714 28.8509C50.684 29.4723 50.1601 30.0693 49.4657 30.4714C49.1976 30.6176 49.1976 30.7638 49.3682 30.9953C49.5875 31.2877 49.7581 31.6045 49.953 31.909C50.0261 32.0918 50.0992 32.2746 50.1601 32.4573C50.2333 32.9203 50.3064 33.3833 50.3795 33.8463C50.4282 34.0168 50.4282 34.2239 50.416 34.4189ZM15.6437 33.7732C15.6437 34.8453 16.2164 35.7347 17.1911 36.1855C18.1292 36.6119 19.2745 36.4292 20.0664 35.6494C25.2689 30.4592 30.4591 25.2689 35.6494 20.0665C36.685 19.0309 36.6484 17.4105 35.6494 16.3992C34.6503 15.4002 33.0177 15.3636 31.9821 16.3992C26.7796 21.5773 21.5894 26.7797 16.3991 31.9821C15.8874 32.4573 15.6316 33.0543 15.6437 33.7732ZM18.2389 15.6317C16.3991 15.6317 14.9493 17.0815 14.9493 18.8969C14.9615 20.6757 16.4479 22.1256 18.2267 22.1134C20.0542 22.1012 21.5041 20.6148 21.4797 18.8116C21.4554 17.0571 19.9933 15.6195 18.2389 15.6317ZM33.1639 36.4048C35.028 36.3926 36.4169 34.9672 36.3926 33.103C36.3682 31.3242 34.9183 29.9109 33.1517 29.9231C31.312 29.9353 29.8987 31.373 29.9108 33.2371C29.923 34.9793 31.3851 36.417 33.1639 36.4048Z" fill="#F26C5F"/>
</g>
<defs>
<clipPath id="clip0_193_3297">
<rect width="52" height="52" fill="white"/>
</clipPath>
</defs>
</svg>
