<svg version="1.1"  xmlns="http://www.w3.org/2000/svg"  width="25" height="24" viewBox="0 0 25 24">
<path d="M13.1,23.7C6.6,24.1,1.2,19.2,0.8,12.8C0.3,6.1,5.5,0.5,12.1,0.3c6-0.2,11.1,4.1,12,9.9C25.2,17.2,20,23.3,13.1,23.7z
	 M11.1,15.8c0.1,4.2-0.8,3,2.4,3.2c0.1,0,0.1-0.1,0.1-0.4c0-2,0-3.8,0-5.7c0-0.1,0-0.2,0.1-0.2c1.1,0,2.1,0.1,2.1-0.1
	c0.4-3.4,0.8-2.2-2.1-2.4c-0.3-3.2,0.3-2.6,2.5-2.8c0.1-0.6,0-1.3,0-2c0-0.3-0.1-0.2-0.4-0.2c-6.8-0.8-3.9,5.5-5,5
	C8.4,10.2,9.1,9.8,9,11.4c0,0.4,0,0.9,0,1.2c0.7,0.1,1.5-0.1,2.1,0C11.1,13.7,11.1,14.8,11.1,15.8z"/>
</svg>
