<svg width="23" height="20" viewBox="0 0 23 20" fill="none" xmlns="http://www.w3.org/2000/svg">
<path d="M10.7631 19.7389L2.05757 11.2457C1.12993 10.3755 0.487711 9.29644 0.202283 8.14776C-0.0831455 7.0687 -0.0831455 5.88522 0.309319 4.70174C0.666104 3.65749 1.27264 2.75247 2.05757 1.98669C2.87817 1.2209 3.84149 0.629161 4.91185 0.315886C6.1606 -0.0670061 7.40935 -0.101814 8.55106 0.211461C9.58574 0.489927 10.5491 0.977244 11.4053 1.67341C12.2616 0.977244 13.225 0.489927 14.2596 0.211461C15.4013 -0.067006 16.6501 -0.0670061 17.8988 0.315886C18.9692 0.629161 19.9325 1.2209 20.7531 1.98669C21.5381 2.75247 22.1803 3.65749 22.5014 4.70174C22.8938 5.88522 22.9295 7.0687 22.6084 8.14776C22.2873 9.29644 21.6451 10.3407 20.7174 11.2457L20.6818 11.2805L12.0119 19.7389C11.6908 20.087 11.1199 20.087 10.7631 19.7389ZM12.44 3.06574L9.6571 5.8156C9.44303 6.02445 9.12192 6.02445 8.90785 5.8156C8.69378 5.60675 8.69378 5.29348 8.90785 5.08463L10.6918 3.34421L10.6561 3.3094C9.90685 2.61324 9.05056 2.09111 8.12292 1.84745C7.26664 1.6386 6.37467 1.6386 5.44703 1.91707C4.6621 2.16073 3.91285 2.61324 3.30632 3.20498C2.69978 3.76191 2.23596 4.49289 1.98621 5.25867C1.70078 6.12888 1.6651 6.96428 1.87917 7.73006C2.09325 8.56546 2.59275 9.36605 3.30632 10.0622L11.4053 17.9289L19.4687 10.0622L19.5044 10.0274C20.2179 9.33124 20.7174 8.56546 20.9315 7.69525C21.1456 6.92947 21.1456 6.09407 20.8245 5.22386C20.5391 4.45808 20.0752 3.76191 19.5044 3.17017C18.8978 2.57843 18.1486 2.12592 17.3637 1.88226C16.436 1.60379 15.5441 1.60379 14.7235 1.81264C13.9028 2.09111 13.1179 2.50881 12.44 3.06574Z" fill="#6D6E71"/>
</svg>
