<svg width="25" height="24" viewBox="0 0 25 24" fill="none" xmlns="http://www.w3.org/2000/svg">
<path d="M12.3058 2C6.6513 2 2.05103 6.486 2.05103 12C2.05103 17.514 6.6513 22 12.3058 22C17.9602 22 22.5605 17.514 22.5605 12C22.5605 6.486 17.9602 2 12.3058 2ZM12.3058 20C7.78239 20 4.10197 16.411 4.10197 12C4.10197 7.589 7.78239 4 12.3058 4C16.8291 4 20.5095 7.589 20.5095 12C20.5095 16.411 16.8291 20 12.3058 20Z" fill="#3597D0"/>
<path d="M11.2803 11H13.3312V17H11.2803V11ZM11.2803 7H13.3312V9H11.2803V7Z" fill="#3597D0"/>
</svg>
