<svg version="1.1" xmlns="http://www.w3.org/2000/svg" xmlns:xlink="http://www.w3.org/1999/xlink" x="0px" y="0px" width="69px"
	 height="52.7px" viewBox="0 0 69 54" style="enable-background:new 0 0 69 54;" xml:space="preserve">
	<style type="text/css">
		.st0{fill:#0098D2;}
	</style>

	<g>
		<path class="st0" d="M40.7,3.4c-1-0.7-2.3-1.1-3.7-1.1c-1.2,0-2.2,0.2-3.1,0.7S32.4,4,31.8,4.8c-0.6,0.8-1,1.6-1.2,2.6c-0.3,1-0.4,2-0.4,3.1c0,1.2,0.1,2.2,0.4,3.3c0.3,1,0.7,1.9,1.2,2.7c0.6,0.8,1.3,1.4,2.1,1.8c0.9,0.5,1.9,0.7,3.1,0.7c0.9,0,1.7-0.1,2.4-0.4c0.7-0.3,1.3-0.7,1.8-1.2c0.5-0.5,0.9-1.1,1.2-1.9s0.5-1.5,0.5-2.3h2.7c-0.3,2.6-1.1,4.5-2.6,6c-1.5,1.4-3.5,2.1-6.1,2.1c-1.6,0-2.9-0.3-4.1-0.8c-1.2-0.5-2.1-1.3-2.9-2.2c-0.8-0.9-1.4-2.1-1.7-3.4c-0.4-1.3-0.6-2.7-0.6-4.1c0-1.5,0.2-2.9,0.6-4.2c0.4-1.3,1-2.4,1.8-3.4c0.8-1,1.8-1.7,3-2.3C34.2,0.3,35.5,0,37.1,0c1.1,0,2.1,0.1,3,0.4c0.9,0.3,1.8,0.7,2.5,1.2c0.7,0.5,1.4,1.2,1.8,2.1c0.5,0.8,0.8,1.8,1,2.9h-2.7C42.4,5.2,41.8,4.1,40.7,3.4z"/>
		<path class="st0" d="M55.4,0.5c3.1,0,5.5,0.8,7.2,2.4c1.7,1.6,2.5,4,2.5,7.3c0,1.7-0.2,3.2-0.6,4.5c-0.4,1.3-1,2.4-1.8,3.3 c-0.8,0.9-1.8,1.6-3,2.1c-1.2,0.5-2.7,0.7-4.4,0.7h-7V0.5H55.4z M55.6,18.5c0.3,0,0.7,0,1.1-0.1c0.5,0,0.9-0.2,1.4-0.3 c0.5-0.2,1-0.4,1.5-0.8s1-0.8,1.3-1.4s0.7-1.3,1-2.2c0.3-0.9,0.4-1.9,0.4-3.2c0-1.2-0.1-2.3-0.4-3.3c-0.2-1-0.6-1.8-1.2-2.4 c-0.5-0.7-1.2-1.2-2.1-1.5c-0.9-0.3-1.9-0.5-3.2-0.5h-4.5v15.7H55.6z"/>
		<path class="st0" d="M69,17.6v3.2h-3.2v-3.2H69z"/>
	</g>
	<g>
		<path class="st0" d="M32.6,29.7v1.9h0c1-1.4,2.3-2.2,4.1-2.2c0.8,0,1.5,0.2,2.1,0.5s1.1,0.9,1.4,1.7c0.4-0.7,1-1.2,1.7-1.6c0.7-0.4,1.5-0.6,2.3-0.6c0.6,0,1.2,0.1,1.7,0.2c0.5,0.1,1,0.4,1.3,0.7s0.7,0.7,0.9,1.1c0.2,0.5,0.3,1,0.3,1.7v9.3h-2.1V34c0-0.4,0-0.8-0.1-1.1c-0.1-0.3-0.2-0.6-0.4-0.9c-0.2-0.3-0.4-0.5-0.8-0.6c-0.3-0.1-0.7-0.2-1.2-0.2c-1,0-1.8,0.3-2.4,0.9c-0.6,0.6-0.9,1.4-0.9,2.4v7.9h-2.1V34c0-0.4,0-0.8-0.1-1.1c-0.1-0.3-0.2-0.6-0.4-0.9c-0.2-0.3-0.4-0.5-0.7-0.6s-0.7-0.2-1.2-0.2c-0.6,0-1.1,0.1-1.6,0.4s-0.8,0.5-1.1,0.9s-0.5,0.7-0.6,1.1s-0.2,0.7-0.2,0.9v7.9h-2.1V29.7H32.6z"/>
		<path class="st0" d="M60.9,42.4v-1.7h0c-0.3,0.7-0.9,1.2-1.6,1.5c-0.7,0.3-1.5,0.5-2.4,0.5c-1,0-1.8-0.2-2.6-0.5 c-0.7-0.4-1.3-0.8-1.8-1.5c-0.5-0.6-0.8-1.3-1.1-2.1C51.1,37.7,51,36.9,51,36s0.1-1.8,0.4-2.6c0.2-0.8,0.6-1.5,1.1-2.1 c0.5-0.6,1.1-1.1,1.8-1.4c0.7-0.4,1.6-0.5,2.5-0.5c0.3,0,0.7,0,1.1,0.1c0.4,0.1,0.8,0.2,1.1,0.3c0.4,0.2,0.7,0.4,1.1,0.6 c0.3,0.3,0.6,0.6,0.8,0.9h0v-6.5H63v17.6H60.9z M53.4,37.9c0.2,0.6,0.4,1.1,0.7,1.5c0.3,0.4,0.7,0.8,1.2,1.1 c0.5,0.3,1.1,0.4,1.8,0.4c0.7,0,1.3-0.1,1.8-0.4c0.5-0.3,0.9-0.6,1.2-1.1s0.5-1,0.7-1.5S61,36.6,61,36c0-0.6-0.1-1.2-0.2-1.8 c-0.1-0.6-0.4-1.1-0.7-1.5c-0.3-0.4-0.7-0.8-1.2-1.1c-0.5-0.3-1.1-0.4-1.8-0.4c-0.7,0-1.3,0.1-1.8,0.4c-0.5,0.3-0.9,0.6-1.2,1.1 c-0.3,0.5-0.5,1-0.6,1.6c-0.1,0.6-0.2,1.2-0.2,1.8C53.2,36.7,53.3,37.3,53.4,37.9z"/>
	</g>
	<g>
		<path d="M3.7,50.5h-2V52h2.3v0.7H1v-4.8h3.1v0.7H1.8v1.3h2V50.5z"/>
		<path d="M8.2,47.9v3.2c0,0.5-0.2,0.9-0.5,1.2S7,52.7,6.5,52.7c-0.5,0-1-0.1-1.3-0.4c-0.3-0.3-0.5-0.7-0.5-1.2v-3.2h0.8v3.2c0,0.3,0.1,0.6,0.2,0.7c0.2,0.2,0.4,0.3,0.7,0.3c0.6,0,1-0.3,1-1v-3.2H8.2z"/>
		<path d="M10.9,50.8H9.9v1.8H9.1v-4.8h1.7c0.5,0,1,0.1,1.3,0.4c0.3,0.2,0.4,0.6,0.4,1.1c0,0.3-0.1,0.6-0.2,0.8 c-0.2,0.2-0.4,0.4-0.6,0.5l1.1,2v0h-0.9L10.9,50.8z M9.9,50.2h0.8c0.3,0,0.5-0.1,0.7-0.2c0.2-0.1,0.2-0.3,0.2-0.6 c0-0.3-0.1-0.5-0.2-0.6c-0.1-0.1-0.4-0.2-0.6-0.2H9.9V50.2z"/>
		<path d="M17.1,50.4c0,0.5-0.1,0.9-0.2,1.2c-0.2,0.4-0.4,0.6-0.7,0.8c-0.3,0.2-0.6,0.3-1,0.3c-0.4,0-0.7-0.1-1-0.3 c-0.3-0.2-0.5-0.5-0.7-0.8c-0.2-0.3-0.2-0.7-0.2-1.2v-0.3c0-0.5,0.1-0.9,0.2-1.2c0.2-0.4,0.4-0.6,0.7-0.8c0.3-0.2,0.6-0.3,1-0.3 c0.4,0,0.7,0.1,1,0.3c0.3,0.2,0.5,0.5,0.7,0.8c0.2,0.3,0.2,0.8,0.2,1.2V50.4z M16.3,50.2c0-0.5-0.1-0.9-0.3-1.2 c-0.2-0.3-0.5-0.4-0.8-0.4c-0.4,0-0.6,0.1-0.8,0.4c-0.2,0.3-0.3,0.7-0.3,1.2v0.3c0,0.5,0.1,0.9,0.3,1.2c0.2,0.3,0.5,0.4,0.8,0.4 c0.4,0,0.6-0.1,0.8-0.4c0.2-0.3,0.3-0.7,0.3-1.2V50.2z"/>
		<path d="M18.7,50.9v1.8h-0.8v-4.8h1.8c0.5,0,1,0.1,1.3,0.4c0.3,0.3,0.5,0.6,0.5,1.1c0,0.5-0.2,0.8-0.5,1.1 c-0.3,0.3-0.7,0.4-1.3,0.4H18.7z M18.7,50.2h1c0.3,0,0.5-0.1,0.7-0.2c0.2-0.1,0.2-0.3,0.2-0.6c0-0.3-0.1-0.5-0.2-0.6 c-0.2-0.2-0.4-0.2-0.6-0.2h-1V50.2z"/>
		<path d="M25,50.5h-2V52h2.3v0.7h-3.1v-4.8h3.1v0.7H23v1.3h2V50.5z"/>
		<path d="M28.6,51.5h-1.8l-0.4,1.1h-0.9l1.8-4.8h0.7l1.8,4.8H29L28.6,51.5z M27,50.9h1.4l-0.7-2L27,50.9z"/>
		<path d="M34.2,52.7h-0.8l-2.1-3.4v3.4h-0.8v-4.8h0.8l2.1,3.4v-3.4h0.8V52.7z"/>
		<path d="M39.3,51.4c0-0.2-0.1-0.4-0.2-0.5c-0.1-0.1-0.4-0.2-0.8-0.3c-0.4-0.1-0.7-0.2-0.9-0.4c-0.4-0.3-0.7-0.6-0.7-1.1c0-0.4,0.2-0.7,0.5-0.9c0.3-0.2,0.7-0.4,1.2-0.4c0.3,0,0.6,0.1,0.9,0.2c0.3,0.1,0.5,0.3,0.6,0.5c0.1,0.2,0.2,0.5,0.2,0.7h-0.8c0-0.2-0.1-0.4-0.2-0.6c-0.2-0.1-0.4-0.2-0.7-0.2c-0.3,0-0.5,0.1-0.6,0.2c-0.1,0.1-0.2,0.3-0.2,0.5c0,0.2,0.1,0.3,0.2,0.4c0.2,0.1,0.4,0.2,0.8,0.3c0.4,0.1,0.7,0.2,0.9,0.4c0.2,0.1,0.4,0.3,0.5,0.5c0.1,0.2,0.2,0.4,0.2,0.6c0,0.4-0.2,0.7-0.5,0.9c-0.3,0.2-0.7,0.4-1.2,0.4c-0.3,0-0.7-0.1-0.9-0.2c-0.3-0.1-0.5-0.3-0.7-0.5c-0.2-0.2-0.2-0.5-0.2-0.8h0.8c0,0.3,0.1,0.5,0.3,0.6c0.2,0.1,0.4,0.2,0.8,0.2c0.3,0,0.5-0.1,0.6-0.2C39.3,51.8,39.3,51.6,39.3,51.4z"/>
		<path d="M43.6,51.5h-1.8l-0.4,1.1h-0.9l1.8-4.8H43l1.8,4.8h-0.9L43.6,51.5z M41.9,50.9h1.4l-0.7-2L41.9,50.9z"/>
		<path d="M49.1,52.7h-0.8l-2.1-3.4v3.4h-0.8v-4.8h0.8l2.1,3.4v-3.4h0.8V52.7z"/>
		<path d="M51,52.7h-0.8v-4.8H51V52.7z"/>
		<path d="M55.3,48.6h-1.5v4.1H53v-4.1h-1.5v-0.7h3.8V48.6z"/>
		<path d="M58.2,51.5h-1.8L56,52.7h-0.9l1.8-4.8h0.7l1.8,4.8h-0.9L58.2,51.5z M56.6,50.9H58l-0.7-2L56.6,50.9z"/>
		<path d="M61.8,50.8h-0.9v1.8H60v-4.8h1.7c0.5,0,1,0.1,1.3,0.4c0.3,0.2,0.4,0.6,0.4,1.1c0,0.3-0.1,0.6-0.2,0.8 c-0.2,0.2-0.4,0.4-0.6,0.5l1.1,2v0h-0.9L61.8,50.8z M60.9,50.2h0.8c0.3,0,0.5-0.1,0.7-0.2c0.2-0.1,0.2-0.3,0.2-0.6 c0-0.3-0.1-0.5-0.2-0.6c-0.1-0.1-0.4-0.2-0.6-0.2h-0.9V50.2z"/>
		<path d="M65.6,50.2l1.1-2.3h0.9l-1.6,3v1.8h-0.8v-1.8l-1.6-3h0.9L65.6,50.2z"/>
	</g>
	<path class="st0" d="M24.5,15.1c-2.7-3.9-6.7-6.2-11-6.6c0.5-3.3,2.9-6.3,8.3-6.3v-2c-6.9,0-9.8,4.2-10.3,8.3 C7.1,8.8,3,11.1,0.2,15.1c-0.3,0.4-0.3,1-0.1,1.4c0.2,0.4,0.7,0.7,1.1,0.7h22.1c0.5,0,0.9-0.3,1.1-0.7C24.8,16,24.8,15.5,24.5,15.1z M2.7,15.2c2.5-3.1,6-4.8,9.7-4.8c3.7,0,7.2,1.7,9.7,4.8H2.7z M19.3,19.3h2V25h-2V19.3z M19.3,27.4h2v6.2h-2V27.4z M19.3,36h2v6.2 h-2V36z M15.2,19.3h2V25h-2V19.3z M15.2,27.4h2v6.2h-2V27.4z M15.2,36h2v6.2h-2V36z M11.1,19.3h2V25h-2V19.3z M11.1,27.4h2v6.2h-2 V27.4z M11.1,36h2v6.2h-2V36z M7,19.3h2V25H7V19.3z M7,27.4h2v6.2H7V27.4z M7,36h2v6.2H7V36z M3,19.3h2V25H3V19.3z M3,27.4h2v6.2H3 V27.4z M3,36h2v6.2H3V36z"/>
</svg>
