<svg width="18" height="18" viewBox="0 0 60 60" fill="black" xmlns="http://www.w3.org/2000/svg">
	<path d="M28.2422 8.90625H31.7578C32.0703 8.90625 32.2266 9.0625 32.2266 9.375V50.625C32.2266 50.9375 32.0703 51.0938 31.7578 51.0938H28.2422C27.9297 51.0938 27.7734 50.9375 27.7734 50.625V9.375C27.7734 9.0625 27.9297 8.90625 28.2422 8.90625Z" />
	<path d="M10.3125 27.7734H49.6875C50 27.7734 50.1562 27.9297 50.1562 28.2422V31.7578C50.1562 32.0703 50 32.2266 49.6875 32.2266H10.3125C10 32.2266 9.84375 32.0703 9.84375 31.7578V28.2422C9.84375 27.9297 10 27.7734 10.3125 27.7734Z"  />
</svg>
