<svg version="1.1" fill="#333333" xmlns="http://www.w3.org/2000/svg" xmlns:xlink="http://www.w3.org/1999/xlink" x="0px" y="0px"
	 viewBox="0 0 17.4 20.2" style="enable-background:new 0 0 17.4 20.2;" xml:space="preserve">

<path class="st0" d="M10.3,19.6c-1.1-0.2-1.7-0.5-2.4-1c-1.3-0.9-1.8-2.2-2.6-3.3c-1.6-2.5-2.9-4.4-2.9-4.6c-0.2-1,0.9-1.6,1.7-1.3 c0.6,0.2,1.7,1.9,2,2.3c0.2,0.3,0.5,0.6,0.7,0.2c0.1-0.5,0-6.1,0-8.5c0.1-0.9,1.2-1.4,2-0.8c0.3,0.3,0.4,0.6,0.4,1 c0,1.8,0,3.5,0,5.3C9.3,9,9.3,8.8,9.3,8.7c0-0.2,0.1-0.3,0.1-0.4c0.5-1.4,2.4-0.9,2.4,0.5c0,0.1,0,0.1,0.1,0.1s0.1-0.1,0.2-0.2 c0.6-1,1.9-0.9,2.3,0.2c0.1,0.3,0,0.5,0.3,0.5c0.1,0,0.2-0.2,0.3-0.3c0.5-0.4,1.3-0.4,1.7,0.1c0.4,0.4,0.3,0.9,0.3,1.3 c0,1.6,0.1,4.2-0.2,5.1c-0.6,2.3-2.4,3.7-4.6,4.1C11.6,19.8,11,19.7,10.3,19.6z M0.5,3.1c0.1-0.1,1-1,1-1c0.2-0.3,0.2-0.2,0.4-0.4 c0.3-0.2,0.7,0,0.6,0.3c0,0.4-0.6,0.7-0.4,0.7C3.3,2.8,4,2.9,4,3.3c0,0.4-1.3,0.3-1.9,0.4C2,3.8,2.2,4,2.3,4.1 C2.7,4.6,2.1,5,1.9,4.8C1.6,4.6,0.7,3.6,0.5,3.3C0.4,3.2,0.5,3.1,0.5,3.1z M8,0.5c0.9-0.1,1.7,0.3,2.3,0.9c1,1,1.1,2.5,0.5,3.5 c-0.1,0.2-0.5,0.3-0.7,0c-0.2-0.3,0.1-0.7,0.1-1C10.5,2.5,9.4,1.3,8,1.3C6.3,1.2,5.3,3.1,6,4.5c0.1,0.1,0,0.2,0,0.4 C5.9,5,5.8,5,5.7,5.1C5,5.4,4.9,4.1,4.8,3.7c0-0.8,0.3-1.5,0.8-2.1C6,1.1,6.5,0.8,6.8,0.7C7.2,0.5,7.6,0.5,8,0.5z M13.8,4.8 c-0.2,0-0.4-0.2-0.4-0.4c0-0.5,0.6-0.7,0.4-0.7c-0.3-0.1-0.6,0-0.9-0.1c-0.6-0.1-0.9,0-1-0.3c-0.1-0.2,0-0.4,0.1-0.5 c0.2-0.1,0.6-0.1,0.9-0.1c0.3,0,0.6-0.1,0.9-0.1c-0.1-0.1-0.2-0.3-0.3-0.4c-0.3-0.3,0-0.8,0.4-0.7c0.4,0.3,1.3,1.3,1.4,1.4 c0.2,0.4-0.4,0.7-0.6,1C14.2,4.5,14,4.9,13.8,4.8z"/>
</svg>
