<svg width="15" height="13" viewBox="0 0 15 13" fill="none" xmlns="http://www.w3.org/2000/svg">
<path d="M0.665257 1.42224C0.395358 1.42224 0.188965 1.60713 0.188965 1.84891C0.188965 2.09069 0.395358 2.27557 0.665257 2.27557H2.50692L4.14219 9.20179C4.2057 9.45779 4.39621 9.68535 4.63436 9.67113H12.5726C12.8266 9.67113 13.0489 9.47202 13.0489 9.24446C13.0489 9.01691 12.8107 8.8178 12.5726 8.8178H5.01539L4.809 7.96446H13.2076C13.414 7.96446 13.6204 7.82224 13.668 7.63735L14.7794 3.37068C14.8429 3.1289 14.6047 2.85869 14.319 2.84446H3.61827L3.36425 1.76357C3.31662 1.57868 3.11022 1.42224 2.90383 1.42224H0.665257ZM3.80879 3.6978H13.7157L12.8266 7.11113H4.61848L3.80879 3.6978ZM6.222 9.95558C5.3488 9.95558 4.63436 10.5956 4.63436 11.3778C4.63436 12.16 5.3488 12.8 6.222 12.8C7.0952 12.8 7.80964 12.16 7.80964 11.3778C7.80964 10.5956 7.0952 9.95558 6.222 9.95558ZM10.9849 9.95558C10.1117 9.95558 9.39728 10.5956 9.39728 11.3778C9.39728 12.16 10.1117 12.8 10.9849 12.8C11.8581 12.8 12.5726 12.16 12.5726 11.3778C12.5726 10.5956 11.8581 9.95558 10.9849 9.95558ZM6.222 10.8089C6.57128 10.8089 6.85706 11.0649 6.85706 11.3778C6.85706 11.6907 6.57128 11.9467 6.222 11.9467C5.87272 11.9467 5.58694 11.6907 5.58694 11.3778C5.58694 11.0649 5.87272 10.8089 6.222 10.8089ZM10.9849 10.8089C11.3342 10.8089 11.62 11.0649 11.62 11.3778C11.62 11.6907 11.3342 11.9467 10.9849 11.9467C10.6356 11.9467 10.3499 11.6907 10.3499 11.3778C10.3499 11.0649 10.6356 10.8089 10.9849 10.8089Z" fill="white"/>
</svg>
