<svg width="20" height="18" viewBox="0 0 20 18" fill="none" xmlns="http://www.w3.org/2000/svg" fill="#3597D0"
>
  <path d="M9.43094 17.765L1.80289 10.1211C0.99007 9.33794 0.427345 8.36679 0.177246 7.33298C-0.0728542 6.36183 -0.0728543 5.2967 0.271033 4.23156C0.583658 3.29174 1.11512 2.47722 1.80289 1.78802C2.52193 1.09881 3.36602 0.566245 4.30389 0.284297C5.39808 -0.0603055 6.49227 -0.0916329 7.49267 0.190315C8.39928 0.440935 9.24336 0.87952 9.99366 1.50607C10.744 0.87952 11.588 0.440935 12.4947 0.190315C13.4951 -0.0603054 14.5892 -0.0603055 15.6834 0.284297C16.6213 0.566245 17.4654 1.09881 18.1844 1.78802C18.8722 2.47722 19.4349 3.29174 19.7163 4.23156C20.0602 5.2967 20.0914 6.36183 19.8101 7.33298C19.5287 8.36679 18.966 9.30662 18.1532 10.1211L18.1219 10.1525L10.5251 17.765C10.2438 18.0783 9.74356 18.0783 9.43094 17.765ZM10.9003 2.75917L8.4618 5.23404C8.27423 5.42201 7.99287 5.42201 7.80529 5.23404C7.61772 5.04608 7.61772 4.76413 7.80529 4.57617L9.36841 3.00979L9.33715 2.97846C8.68064 2.35191 7.93034 1.882 7.11752 1.66271C6.36722 1.47474 5.58565 1.47474 4.77283 1.72536C4.08505 1.94465 3.42854 2.35191 2.89708 2.88448C2.36562 3.38572 1.95921 4.0436 1.74037 4.7328C1.49027 5.51599 1.45901 6.26785 1.64658 6.95706C1.83416 7.70892 2.27183 8.42945 2.89708 9.056L9.99366 16.136L17.059 9.056L17.0902 9.02467C17.7155 8.39812 18.1532 7.70891 18.3407 6.92573C18.5283 6.23652 18.5283 5.48466 18.247 4.70147C17.9969 4.01227 17.5904 3.38572 17.0902 2.85315C16.5588 2.32058 15.9023 1.91333 15.2145 1.69403C14.4017 1.44341 13.6201 1.44341 12.9011 1.63138C12.182 1.882 11.4943 2.25793 10.9003 2.75917Z" />
</svg>
