<svg width="21" height="24" viewBox="0 0 21 24" fill="none" xmlns="http://www.w3.org/2000/svg">
<path d="M10.5029 7.22778C9.60782 7.22778 8.74938 7.58336 8.11645 8.2163C7.48351 8.84923 7.12793 9.70768 7.12793 10.6028C7.12793 11.4979 7.48351 12.3563 8.11645 12.9893C8.74938 13.6222 9.60782 13.9778 10.5029 13.9778C11.398 13.9778 12.2565 13.6222 12.8894 12.9893C13.5224 12.3563 13.8779 11.4979 13.8779 10.6028C13.8779 9.70768 13.5224 8.84923 12.8894 8.2163C12.2565 7.58336 11.398 7.22778 10.5029 7.22778ZM8.53418 10.6028C8.53418 10.0806 8.7416 9.57988 9.11081 9.21067C9.48003 8.84145 9.98079 8.63403 10.5029 8.63403C11.0251 8.63403 11.5258 8.84145 11.895 9.21067C12.2643 9.57988 12.4717 10.0806 12.4717 10.6028C12.4717 11.1249 12.2643 11.6257 11.895 11.9949C11.5258 12.3641 11.0251 12.5715 10.5029 12.5715C9.98079 12.5715 9.48003 12.3641 9.11081 11.9949C8.7416 11.6257 8.53418 11.1249 8.53418 10.6028Z" fill="#757575"/>
<path d="M17.8125 16.509L12.138 22.5334C11.9277 22.7568 11.6738 22.9348 11.3921 23.0564C11.1104 23.1781 10.8069 23.2409 10.5 23.2409C10.1932 23.2409 9.88958 23.1781 9.60789 23.0564C9.3262 22.9348 9.07237 22.7568 8.86201 22.5334L3.18751 16.509H3.20889L3.19933 16.4978L3.18751 16.4837C1.73103 14.7612 0.933643 12.5773 0.937514 10.3215C0.937514 5.04022 5.2187 0.759033 10.5 0.759033C15.7813 0.759033 20.0625 5.04022 20.0625 10.3215C20.0664 12.5773 19.269 14.7612 17.8125 16.4837L17.8007 16.4978L17.7911 16.509H17.8125ZM16.7196 15.5983C17.9729 14.1261 18.6596 12.255 18.6563 10.3215C18.6563 5.81703 15.0045 2.16528 10.5 2.16528C5.99551 2.16528 2.34376 5.81703 2.34376 10.3215C2.34376 12.3353 3.07164 14.1758 4.28045 15.5983L4.4537 15.8025L9.88576 21.5687C9.96465 21.6525 10.0598 21.7192 10.1655 21.7649C10.2711 21.8105 10.3849 21.834 10.5 21.834C10.6151 21.834 10.7289 21.8105 10.8346 21.7649C10.9402 21.7192 11.0354 21.6525 11.1143 21.5687L16.5463 15.8025L16.7196 15.5983Z" fill="#757575"/>
</svg>
