<svg width="20" height="22" viewBox="0 0 20 22" fill="none" xmlns="http://www.w3.org/2000/svg">
<path d="M0.784636 17.2765C1.28633 16.0881 2.01439 15.0087 2.92824 14.0983C3.83931 13.1853 4.91857 12.4574 6.10641 11.9547C6.11705 11.9494 6.12768 11.9467 6.13832 11.9414C4.48142 10.7446 3.4043 8.79515 3.4043 6.5957C3.4043 2.95211 6.35641 0 10 0C13.6436 0 16.5957 2.95211 16.5957 6.5957C16.5957 8.79515 15.5186 10.7446 13.8617 11.9441C13.8723 11.9494 13.883 11.952 13.8936 11.9574C15.0851 12.46 16.1542 13.1808 17.0718 14.101C17.9848 15.012 18.7127 16.0913 19.2154 17.2791C19.7092 18.442 19.9755 19.6888 19.9999 20.952C20.0006 20.9804 19.9957 21.0086 19.9853 21.035C19.9749 21.0615 19.9594 21.0856 19.9395 21.1059C19.9197 21.1262 19.896 21.1424 19.8698 21.1534C19.8437 21.1644 19.8156 21.1701 19.7872 21.1701H18.1914C18.0744 21.1701 17.9813 21.077 17.9787 20.9626C17.9255 18.9094 17.101 16.9866 15.6436 15.5292C14.1356 14.0212 12.133 13.1914 10 13.1914C7.86703 13.1914 5.86439 14.0212 4.35642 15.5292C2.89898 16.9866 2.07452 18.9094 2.02133 20.9626C2.01867 21.0796 1.92558 21.1701 1.80857 21.1701H0.212831C0.184437 21.1701 0.156328 21.1644 0.130161 21.1534C0.103994 21.1424 0.0802994 21.1262 0.0604706 21.1059C0.0406437 21.0856 0.0250835 21.0615 0.0147095 21.035C0.0043354 21.0086 -0.000644684 20.9804 6.67572e-05 20.952C0.0266609 19.6807 0.289957 18.444 0.784636 17.2765ZM10 11.1701C11.2207 11.1701 12.3697 10.6941 13.234 9.82972C14.0984 8.96537 14.5744 7.81644 14.5744 6.5957C14.5744 5.37496 14.0984 4.22604 13.234 3.36168C12.3697 2.49732 11.2207 2.02126 10 2.02126C8.77926 2.02126 7.63033 2.49732 6.76598 3.36168C5.90162 4.22604 5.42556 5.37496 5.42556 6.5957C5.42556 7.81644 5.90162 8.96537 6.76598 9.82972C7.63033 10.6941 8.77926 11.1701 10 11.1701Z" fill="#444444"/>
</svg>
